<?xml version="1.0" encoding="UTF-8"?>
<svg version="1.1" xmlns="http://www.w3.org/2000/svg" width="32" height="32">
<path d="M0 0 C0 1.32 0 2.64 0 4 C4.29 4 8.58 4 13 4 C13 6.31 13 8.62 13 11 C8.71 11 4.42 11 0 11 C-0.33 12.32 -0.66 13.64 -1 15 C-3.31 12.69 -5.62 10.38 -8 8 C-4 0 -4 0 0 0 Z " fill="#27B2EB" transform="translate(8,13)"/>
<path d="M0 0 C1.17825358 0.90172468 2.34231577 1.82201502 3.5 2.75 C4.1496875 3.26046875 4.799375 3.7709375 5.46875 4.296875 C7 6 7 6 7 10 C4.625 12.75 4.625 12.75 2 15 C1.34 15 0.68 15 0 15 C0 13.68 0 12.36 0 11 C-4.29 11 -8.58 11 -13 11 C-13 8.69 -13 6.38 -13 4 C-8.71 4 -4.42 4 0 4 C0 2.68 0 1.36 0 0 Z " fill="#27B2EB" transform="translate(24,4)"/>
<path d="M0 0 C0 4.95 0 9.9 0 15 C-5.46875 10.703125 -5.46875 10.703125 -7 9 C-7 5 -7 5 -4.625 2.25 C-2 0 -2 0 0 0 Z " fill="#018BDF" transform="translate(8,13)"/>
<path d="M0 0 C5.46875 4.296875 5.46875 4.296875 7 6 C7 10 7 10 4.625 12.75 C2 15 2 15 0 15 C0 10.05 0 5.1 0 0 Z " fill="#018BDF" transform="translate(24,4)"/>
</svg>
